<?xml version="1.0" encoding="UTF-8"?>
<svg id="_圖層_1" data-name="圖層 1" xmlns="http://www.w3.org/2000/svg" viewBox="0 0 512 512">
  <defs>
    <style>
      .cls-1 {
        fill: #fd494a;
      }

      .cls-2 {
        fill: #e4343e;
      }

      .cls-3 {
        fill: #fbd754;
      }

      .cls-4 {
        fill: #040302;
      }

      .cls-5 {
        fill: #fcb924;
      }
    </style>
  </defs>
  <path class="cls-4" d="M0,266.97c4.26-24.5,12.38-47.01,28.04-66.48,52.77-65.57,154.46-61,201.66,8.34,32.02,47.04,25.2,102.87-.11,151.17-1.32,2.52-7.38,13.52-8.8,14.69-2.38,1.97-6.77,1.16-9.72,1.29.14-2.1-2.44-3.72-2.86-5.74-.78-3.78,10.35-21.69,12.72-26.91,31.77-70,10.87-152.5-69.88-171.38-.86-.2-2.11.18-3,0-.07-.01-.27-.87-1-1-63.18-11.46-123.47,31.45-131.03,95.52-8.02,67.98,52.72,145.46,102.02,186.51,1.75,1.46,6.49,7.85,8.99,6.56,15.59-14.39,31.46-28.65,45.54-44.56,5.88-6.64,15.65-21.99,21.44-26.56,4.99-3.94,7.46-.53,10.06-1.45,1.65,3.65,3.13,6.83,1.46,10.96-.97,2.39-11.92,15.4-14.49,18.51-5.76,7.01-12.5,13.27-17.98,20.52,13.65,2.67,38.61,14.28,40.95,29.58,3.95,25.88-27.13,36.19-46.94,40.95l-25.02,4.49h-34.01c-20.49-3.93-58.8-9.49-68.75-30.77s13.33-35.16,29.76-41.72c1.63-.65,9.93-1.75,8.97-4.01-.9-2.11-12.04-12.58-14.51-15.5-25.32-29.97-50.24-68.21-59.21-106.83-1.7-7.31-2.15-15-4.3-22.21v-24ZM58.02,462.99c-8.26,7.26-8.29,10.88.67,17.83,27.58,21.4,100.09,20.29,129.67,2.98,10.14-5.94,15.99-12.66,4.7-21.81-8.76-7.1-21.59-10.11-32.39-12.78l-30.63,26.78c-2.01.04-4.8,1.07-8,1-5.94-3.21-27.78-27.1-31.66-27.73-6.48-1.05-27.03,9.05-32.36,13.73Z"/>
  <path class="cls-1" d="M428.12,16.93c12.32,7.57,23.28,15.86,31.84,27.67,40.56,55.93,2.64,122.74-37.33,166.37-5.01,5.47-11.33,12.13-17.52,15.99-33.31-29.54-66.71-71.6-73.89-116.64-1.08-6.74,1.91-19.1-8.13-19.38l4-21c10.04,2.32,11.31-8.09,15.2-14.31,18.91-30.2,50.49-45.03,85.83-38.7ZM382.46,67.29c-40.09,40.86,21.28,101.87,61.7,62.19,42.04-41.27-21.74-102.93-61.7-62.19Z"/>
  <path class="cls-4" d="M327.09,69.94c-9.71-2.24-.55-17.59,2.2-22.31,35.78-61.35,124.98-63.74,165.07-5.42,41.53,60.41,2.15,128.52-40.18,175.31-.43,2.07.31,1.13,1.33,1.53,11.97,4.59,28.55,11.63,28.25,27.25-.47,24.43-46.81,32.06-65.16,32.66-19.4.63-71.91-5.25-74.51-30.49-1.81-17.59,14.15-24.02,27.6-29.42.97-.39,1.78.55,1.44-1.61-.24-1.52-13.67-16.07-15.99-19.03-21.14-27.02-41.37-62.74-42.09-98.02-.11-5.43,2.34-9.62,8.04-9.46,10.04.28,7.05,12.63,8.13,19.38,7.18,45.04,40.59,87.1,73.89,116.64,2.3,2.04,6.42,8.09,9.96,6.52,4.28-1.9,26.57-25.01,31.08-29.99,35.76-39.55,71.58-102.03,35.8-152.86-13.43-19.08-31.17-29.63-53.83-33.69-35.34-6.34-66.92,8.5-85.83,38.7-3.89,6.22-5.16,16.62-15.2,14.31ZM369.11,236.96c-10.14,5.14-15.83,8.98-2.53,17.03,21.01,12.72,73.08,12.72,94.09,0,13.29-8.05,7.56-11.77-2.53-17.03-4.1-2.14-11.69-6.51-16.49-6.01-3.05.32-11.38,9.19-13.52,12.01-4.08.93-8.23,8.76-13.5,9.09-6.95.43-10.72-8.05-15.5-9.09-2.55-3-9.84-11.62-13.54-11.98-4.56-.44-12.47,3.95-16.47,5.98Z"/>
  <path class="cls-2" d="M211.06,375.98c-.06.92-6.39,10.78-7,11-2.59.92-5.07-2.49-10.06,1.45-5.79,4.58-15.56,19.92-21.44,26.56-14.07,15.9-29.95,30.17-45.54,44.56-2.5,1.28-7.24-5.1-8.99-6.56,59.13-53.79,128.06-145.2,85.55-228.05-11.97-23.32-28.07-36.76-49.9-50.17-1.3-.8-3.2-.34-2.63-2.82,80.75,18.88,101.64,101.38,69.88,171.38-2.37,5.22-13.49,23.13-12.72,26.91.41,2.02,3,3.63,2.86,5.74Z"/>
  <path class="cls-4" d="M393.85,335.21c6.04-1.22,18-1.05,18.34,7.29.37,8.96-10.88,9.47-17.51,8.41-10.05-1.6-10.28-13.81-.83-15.71Z"/>
  <path class="cls-4" d="M433.86,335.21c5.65-1.02,16.79-.76,18.12,6.5,1.85,10.11-15.63,11.42-21.78,7.68-6.64-4.03-3.85-12.83,3.66-14.19Z"/>
  <path class="cls-4" d="M349.36,348.72c-2.68-2.5-2.62-8.23-.31-11.04,3.84-4.67,27.09-5.69,22.85,8.59-1.85,6.23-18.85,5.88-22.54,2.45Z"/>
  <path class="cls-4" d="M314.83,335.21c5.65-1.02,16.79-.76,18.12,6.5,1.64,8.97-11.05,10.06-17.26,9.17-10.7-1.54-10.9-13.86-.85-15.67Z"/>
  <path class="cls-4" d="M296.8,465.29c3.44,2.92,2.97,9.8-1,12-7.21,4.01-25.36,2.97-21.28-9.36,2.08-6.27,18.05-6.22,22.28-2.64Z"/>
  <path class="cls-4" d="M320.83,463.23c6.09-1.1,16.55-1.21,17.85,6.71,1.92,11.67-22.34,11.25-24.37,4.35-1.68-5.72.71-10.01,6.52-11.06Z"/>
  <path class="cls-4" d="M321.81,240.24c3.38,3.4,2.07,11.22-2.43,12.52-1.9.55-11.74,1.46-13.73,1.16-5.61-.86-7.87-5.74-6.12-11.02,2.03-6.11,18.47-6.49,22.28-2.66Z"/>
  <path class="cls-4" d="M507.83,394.66c-2.49,2.28-6.02,2.68-8.97,1.1-4.41-2.36-10.08-17.68-5-21.83,10.66-8.7,20.16,15.06,13.97,20.73Z"/>
  <path class="cls-4" d="M263.83,286.16c2.88-.26,6.42,2.53,7.49,5.07.68,1.63,1.62,10.25,1.59,12.27-.16,9.05-13.51,10.93-15.6.74-1.28-6.24-2.47-17.26,6.52-18.08Z"/>
  <path class="cls-4" d="M490.86,447.27c6.31,6.32-2.75,13.91-7.79,17.15-9.57,6.16-17.41-3.93-10.44-11.43,3.99-4.29,12.92-11.03,18.22-5.73Z"/>
  <path class="cls-4" d="M443.92,462.29c4.94-.47,14.16,0,13.96,7.02-.3,10.85-25.71,13.4-24.81.19.44-6.42,5.56-6.71,10.85-7.22Z"/>
  <path class="cls-4" d="M358.82,463.21c7.45-1.66,23.58-.69,18.76,10.77-2.12,5.05-16.53,5.28-20.46,3.5-5.73-2.58-5.24-12.73,1.7-14.27Z"/>
  <path class="cls-4" d="M397.82,463.2c6.94-2.02,24.49-.81,19.55,10.54-2.71,6.24-21.2,6.22-23.73.23-1.63-3.87.08-9.58,4.18-10.78Z"/>
  <path class="cls-4" d="M277.81,251.14c4.17-.87,8.97,1.94,9.36,6.32.51,5.68-9.44,17.04-15.15,16.1-13.15-2.18-1.49-20.9,5.79-22.41Z"/>
  <path class="cls-4" d="M501.88,411.16c15.11-3.08,9.07,24.56-.21,24.72-12.8.23-7.04-23.25.21-24.72Z"/>
  <path class="cls-4" d="M292.78,340.69c-5.47,6.78-20.32-3.89-20.76-10.23-1.35-19.33,29.37-.43,20.76,10.23Z"/>
  <path class="cls-4" d="M467.42,345.28c6.33-5.11,24.02,5.64,20.19,14.68-4.97,11.75-30.74-6.16-20.19-14.68Z"/>
  <path class="cls-4" d="M236.35,476.71c-3.43-3.44-2.43-11.09,2.43-12.51,4.2-1.23,18.18-1.35,19.86,3.74,4.43,13.39-17.6,13.48-22.29,8.78Z"/>
  <path class="cls-1" d="M147.04,170.95l1,1c.89.18,2.14-.2,3,0-.57,2.48,1.33,2.02,2.63,2.82,21.84,13.41,37.94,26.85,49.9,50.17,42.51,82.85-26.41,174.26-85.55,228.05-49.29-41.05-110.03-118.54-102.02-186.51,7.56-64.07,67.84-106.98,131.03-95.52ZM91.03,246.96c-.24,2.25-6.94,8.89-8,12-13.92-3.57-12.4,24.32-10.73,32.23,9.89,46.73,73.32,58.64,99.38,17.91s-6.8-89.22-53.04-84.03c-6.6.74-27.91,7.98-28.61,15.49-.21,2.29,1.2,4.46.99,6.41Z"/>
  <path class="cls-5" d="M193.06,461.99c11.3,9.15,5.45,15.88-4.7,21.81-29.58,17.31-102.09,18.42-129.67-2.98-8.96-6.95-8.93-10.57-.67-17.83,20.03,10.86,41.56,13.54,64.02,14,3.2.07,5.99-.96,8-1,.13,0,1.17,1.08,2.43,1.03,20.22-.71,43.71-3.27,60.59-15.03Z"/>
  <path class="cls-3" d="M122.04,477c-22.46-.46-43.99-3.14-64.02-14,5.33-4.68,25.87-14.78,32.36-13.73,3.88.63,25.73,24.52,31.66,27.73Z"/>
  <path class="cls-3" d="M193.06,461.99c-16.87,11.76-40.37,14.32-60.59,15.03-1.26.04-2.3-1.03-2.43-1.03l30.63-26.78c10.8,2.67,23.62,5.68,32.39,12.78Z"/>
  <path class="cls-2" d="M148.04,171.95l-1-1c.73.13.93.99,1,1Z"/>
  <path class="cls-2" d="M405.12,226.96c6.19-3.86,12.51-10.52,17.52-15.99,39.97-43.63,77.89-110.44,37.33-166.37-8.56-11.81-19.52-20.11-31.84-27.67,22.66,4.06,40.4,14.61,53.83,33.69,35.78,50.83-.04,113.32-35.8,152.86-4.5,4.98-26.8,28.09-31.08,29.99-3.54,1.58-7.66-4.48-9.96-6.52Z"/>
  <path class="cls-4" d="M382.46,67.29c39.96-40.74,103.74,20.92,61.7,62.19-40.42,39.68-101.79-21.33-61.7-62.19ZM407.88,70.2c-33.69,4.92-28.3,60.3,8.63,56.64,36.98-3.67,33.2-62.75-8.63-56.64Z"/>
  <path class="cls-5" d="M369.11,236.96c4.77.5,9,2.84,13.63,3.87,5.39,1.2,11.66,1.11,16.37,2.13s8.56,9.53,15.5,9.09c5.27-.33,9.43-8.16,13.5-9.09,4.89-1.11,11.57-.99,17.21-2.3,4.28-.99,8.39-3.06,12.8-3.7,10.09,5.27,15.82,8.98,2.53,17.03-21.01,12.72-73.08,12.72-94.09,0-13.3-8.05-7.61-11.9,2.53-17.03Z"/>
  <path class="cls-3" d="M458.13,236.96c-4.41.64-8.52,2.71-12.8,3.7-5.63,1.31-12.32,1.19-17.21,2.3,2.14-2.81,10.47-11.69,13.52-12.01,4.8-.51,12.39,3.87,16.49,6.01Z"/>
  <path class="cls-3" d="M399.12,242.96c-4.72-1.02-10.99-.93-16.37-2.13-4.64-1.03-8.87-3.37-13.63-3.87,4-2.03,11.91-6.42,16.47-5.98,3.7.36,10.99,8.98,13.54,11.98Z"/>
  <path class="cls-4" d="M83.02,258.97c8.55,2.19,2.86,15.05,2.97,20.45.65,31.79,36,50.28,62.38,32.39,35.8-24.28,10.21-82.21-33.34-70.35-8.82,2.4-14.96,10.7-24,5.51.21-1.95-1.21-4.12-.99-6.41.69-7.51,22.01-14.75,28.61-15.49,46.24-5.19,78.3,44.55,53.04,84.03s-89.49,28.82-99.38-17.91c-1.67-7.91-3.19-35.8,10.73-32.23Z"/>
</svg>