<?xml version="1.0" encoding="UTF-8"?>
<svg id="_圖層_1" data-name="圖層 1" xmlns="http://www.w3.org/2000/svg" viewBox="0 0 512 511.99">
  <defs>
    <style>
      .cls-1 {
        fill: #fdd663;
      }

      .cls-2 {
        fill: #fb7e4b;
      }

      .cls-3 {
        fill: #fd533f;
      }

      .cls-4 {
        fill: #8f1c0f;
      }

      .cls-5 {
        fill: #040303;
      }

      .cls-6 {
        fill: #040402;
      }

      .cls-7 {
        fill: #030201;
      }

      .cls-8 {
        fill: #040302;
      }

      .cls-9 {
        fill: #060502;
      }

      .cls-10 {
        fill: #eddaa4;
      }

      .cls-11 {
        fill: #fefefe;
      }

      .cls-12 {
        fill: #401510;
      }

      .cls-13 {
        fill: #fcb550;
      }

      .cls-14 {
        fill: #da230e;
      }
    </style>
  </defs>
  <path class="cls-5" d="M512,236v4c-1.21,1-1.21,2,0,3v26c-1.21,1-1.21,2,0,3v5c-2.41,8.86-2.58,18.19-4.29,27.2-19.36,102.11-101.36,184.15-203.48,203.46l-29.2,4.29h-3c-1-1.21-2-1.21-3,0h-26c-1-1.21-2-1.21-3,0-1.65-.09-3.36.13-5,0C19.13,494.18-79.15,228.31,75.01,74.5,229.22-79.37,495.3,20.07,512,236ZM358.02,473.95c184.65-85.99,184.65-349.93,0-435.92C215.55-28.31,48.26,57.08,19.36,210.82c-36.2,192.6,160.26,346.21,338.65,263.14Z"/>
  <path class="cls-4" d="M512,243c-1.21-1-1.21-2,0-3v3Z"/>
  <path class="cls-4" d="M512,271.99c-1.21-1-1.21-2,0-3v3Z"/>
  <path class="cls-4" d="M243.03,511.95h-3c1-1.21,2-1.21,3,0Z"/>
  <path class="cls-4" d="M272.02,511.95h-3c1-1.21,2-1.21,3,0Z"/>
  <path class="cls-1" d="M358.02,38.03c-.49,2.22,1.22,2.12,2.47,2.98,64.06,43.88,99.7,122.46,103.52,198.98-.84-.02-2.41-.18-3,0-1-5.12-6.28-9.42-11-11,4.45-16.74-21.87-10.29-29.93-4.43-38.24,27.78,12.51,82.97,43.93,48.42-4.21,76.22-39.67,154.25-103.52,197.98-1.25.86-2.96.76-2.47,2.98C179.63,557.03-16.84,403.42,19.36,210.82,48.26,57.08,215.55-28.31,358.02,38.03ZM149.78,144.26c-11,1.71-22.55,12.2-26.76,22.23-2.72,6.48-6.74,22.38,4.53,22.38,8.66,0,7.15-9.73,9.22-15.63,6.68-19.03,34.87-19.03,41.55,0,2.07,5.9.56,15.63,9.22,15.63,11.79,0,6.91-17.26,3.89-23.74-7.52-16.08-24.27-23.57-41.64-20.87ZM346.76,144.26c-11,1.71-22.55,12.2-26.76,22.23-2.72,6.48-6.74,22.38,4.53,22.38,8.66,0,7.15-9.73,9.22-15.63,6.68-19.03,34.87-19.03,41.55,0,2.07,5.9.56,15.63,9.22,15.63,11.79,0,6.91-17.26,3.89-23.74-7.52-16.08-24.27-23.57-41.64-20.87ZM94.04,240c-.43-4.73-6.61-9.99-11-11,4.52-16.99-22.44-10.15-30.5-4-35.47,27.06,9.55,80.63,42.42,49.42,9.31-8.84,17.53-39.36-.93-34.42ZM385.66,225.36c-3.33-3.33-9.31-6.15-14.1-6.4-78.42.54-157.03-.89-235.33.73-8.33,2.57-15.2,10.02-16.19,18.81-6.17,54.94,10.28,109.14,55.68,142.29,77.6,56.67,189.46,16.67,212.22-76.38,4.2-17.16,6.34-49.49,3.98-66.83-.51-3.73-3.63-9.59-6.27-12.23ZM246.74,422.18c-7.3,1.63-7.56,12.67-1.01,14.58,2.86.83,19.52.55,21.84-.74,5.31-2.98,4.37-11.76-1.5-13.6-2.83-.89-16.32-.91-19.34-.23Z"/>
  <path class="cls-13" d="M358.02,473.95c-.49-2.22,1.22-2.12,2.47-2.98,63.85-43.73,99.31-121.77,103.52-197.98,1.04-1.14,4.41-7.55,5.18-9.32,3.23-7.51,6.66-23.34-5.18-23.67-3.82-76.52-39.46-155.1-103.52-198.98-1.25-.86-2.96-.76-2.47-2.98,184.65,85.99,184.65,349.92,0,435.92Z"/>
  <path class="cls-7" d="M385.66,225.36c2.64,2.64,5.76,8.5,6.27,12.23,2.36,17.34.21,49.66-3.98,66.83-22.76,93.05-134.62,133.04-212.22,76.38-45.4-33.15-61.85-87.35-55.68-142.29.99-8.79,7.85-16.24,16.19-18.81,78.3-1.62,156.91-.18,235.33-.73,4.79.25,10.77,3.07,14.1,6.4ZM345.02,325.98c3.22,2.7,6.92,8.63,10.5,11.01,1.11.74.69,1.56,1.97-.03,4.01-4.96,9.99-18.44,12.27-24.73,3.82-10.54,6.63-23.52,7.3-34.7.47-7.77,1.21-31.3-.25-37.82-1.63-7.27-9.05-5.74-14.79-5.71v26.5c0,2.17-5.99,11.9-8,13.5-3.61,2.88-10.85,4.67-15.46,5.04-53.32,4.2-112.11-3.21-166-.05-7.2-.77-14.18-3.44-18.35-9.65-.72-1.07-4.17-8.22-4.17-8.83v-26.5c-5.34.11-12.53-1.68-14.55,4.95-1.56,5.12-.9,31.74-.49,38.59,1.27,21.26,8.6,42.96,20.54,60.43,32.32-35.49,81.24-51.11,128.52-41.51,20.7,4.2,44.8,15.95,60.96,29.53ZM324.02,234c-52.98-.22-106.01.16-158.98,0v23.5c0,3.71,6.07,6.59,9.5,6.51,49.47-.69,99.04.9,148.49,0,4.63-.09,24,1.62,24-5.5v-24.5c-7.65-.02-15.35.03-23,0ZM310.02,378.97c9.71-4.84,31.72-18.53,36.54-28.02,1.23-2.42-6.52-8.14-8.54-9.97-47.41-42.96-117.85-43.16-165,.49-1.56,1.44-8.39,7.6-7.52,9.53.22.48,6.16,7.11,7.04,7.98,36.04,35.45,92.79,42.28,137.48,20Z"/>
  <path class="cls-8" d="M83.04,229c-1.7,6.4-18.11,1.37-24.83,11.66-13.98,21.42,19.17,39.01,30.03,18.03,2.77-5.34.15-17.18,5.8-18.7,18.46-4.94,10.24,25.58.93,34.42-32.87,31.21-77.89-22.36-42.42-49.42,8.06-6.15,35.01-12.99,30.5,4Z"/>
  <path class="cls-8" d="M450.01,229c-1.64,6.16-18.11,1.68-24.84,11.66-14.08,20.87,19.03,39.29,30.04,18.04,2.86-5.52.02-16.9,5.8-18.7.59-.18,2.16-.02,3,0,11.84.33,8.41,16.17,5.18,23.67-.76,1.78-4.14,8.18-5.18,9.32-31.41,34.55-82.17-20.64-43.93-48.42,8.06-5.85,34.38-12.31,29.93,4.43Z"/>
  <path class="cls-6" d="M149.78,144.26c17.37-2.7,34.12,4.79,41.64,20.87,3.03,6.48,7.91,23.74-3.89,23.74-8.66,0-7.15-9.73-9.22-15.63-6.68-19.03-34.87-19.03-41.55,0-2.07,5.9-.56,15.63-9.22,15.63-11.26,0-7.25-15.9-4.53-22.38,4.22-10.03,15.77-20.52,26.76-22.23Z"/>
  <path class="cls-6" d="M346.76,144.26c17.37-2.7,34.12,4.79,41.64,20.87,3.03,6.48,7.91,23.74-3.89,23.74-8.66,0-7.15-9.73-9.22-15.63-6.68-19.03-34.87-19.03-41.55,0-2.07,5.9-.56,15.63-9.22,15.63-11.26,0-7.25-15.9-4.53-22.38,4.22-10.03,15.77-20.52,26.76-22.23Z"/>
  <path class="cls-2" d="M94.04,240c-5.65,1.51-3.03,13.35-5.8,18.7-10.86,20.98-44.01,3.39-30.03-18.03,6.72-10.29,23.13-5.27,24.83-11.66,4.39,1,10.57,6.27,11,11Z"/>
  <path class="cls-2" d="M461.01,240c-5.78,1.8-2.94,13.18-5.8,18.7-11.01,21.25-44.12,2.84-30.04-18.04,6.73-9.98,23.2-5.5,24.84-11.66,4.72,1.58,10,5.87,11,11Z"/>
  <path class="cls-9" d="M246.74,422.18c3.02-.67,16.51-.65,19.34.23,5.87,1.84,6.8,10.62,1.5,13.6-2.32,1.3-18.98,1.58-21.84.74-6.55-1.91-6.29-12.95,1.01-14.58Z"/>
  <path class="cls-3" d="M338.02,340.98c-5.85,14.84-17,26.82-28,37.99-44.69,22.28-101.44,15.44-137.48-20-.88-.87-6.83-7.49-7.04-7.98-.87-1.93,5.97-8.09,7.52-9.53,47.15-43.64,117.59-43.44,165-.49Z"/>
  <path class="cls-4" d="M345.02,325.98c-16.16-13.58-40.26-25.33-60.96-29.53-47.29-9.6-96.21,6.02-128.52,41.51-11.94-17.47-19.27-39.17-20.54-60.43-.41-6.85-1.07-33.47.49-38.59,2.02-6.62,9.21-4.84,14.55-4.95v26.5c0,.61,3.45,7.76,4.17,8.83,4.17,6.21,11.15,8.88,18.35,9.65,53.89-3.15,112.69,4.26,166,.05,4.61-.36,11.85-2.16,15.46-5.04.53,17.71-3.12,35.37-9,51.99Z"/>
  <path class="cls-11" d="M324.02,234c-.38,9.98.95,20.18-1,29.99-49.45.91-99.02-.69-148.49,0-3.42.08-9.5-2.79-9.5-6.51v-23.5c52.98.16,106.01-.22,158.98,0Z"/>
  <path class="cls-12" d="M345.02,325.98c5.87-16.62,9.53-34.28,9-51.99,2.01-1.6,8-11.33,8-13.5v-26.5c5.74-.03,13.16-1.56,14.79,5.71,1.46,6.52.72,30.05.25,37.82-.67,11.17-3.48,24.16-7.3,34.7-2.28,6.28-8.26,19.77-12.27,24.73-1.29,1.59-.87.77-1.97.03-3.58-2.38-7.28-8.31-10.5-11.01Z"/>
  <path class="cls-10" d="M324.02,234c7.65.03,15.35-.02,23,0v24.5c0,7.12-19.36,5.41-24,5.5,1.95-9.82.62-20.02,1-29.99Z"/>
  <path class="cls-14" d="M310.02,378.97c11-11.17,22.14-23.15,28-37.99,2.02,1.83,9.77,7.55,8.54,9.97-4.82,9.49-26.83,23.18-36.54,28.02Z"/>
</svg>