<?xml version="1.0" encoding="UTF-8"?>
<svg id="_圖層_1" data-name="圖層 1" xmlns="http://www.w3.org/2000/svg" viewBox="0 0 512 512">
  <path d="M50.69,0c1.22,1.06,4.99,4.06,4.99,5.49v14.48h43.44c2.34,0,5.55,4.88,5.55,7.49s-3.2,7.49-5.55,7.49h-43.44v14.48c0,1.18-4.32,5.49-5.49,5.49h-14.48v179.73c3.41-.1,9.98-.63,12.03,2.7,2.88,4.7,3.09,32.69-.34,36.96-2.41,2.99-8.22,2.28-11.69,2.28v179.73h14.48c1.18,0,5.49,4.32,5.49,5.49v14.48h179.73c-.2-3.39-.55-10.76,3.23-12.32,3.11-1.28,27.67-1.16,32.23-.67,7.39.8,6.65,6.82,6.47,12.99l107.37-.03c10.15,1.17,9.85,13.98,0,15.02l-107.37-.03c.7,8.51-.29,13.07-9.48,13.99-5.66.57-24.85.71-29.18-1.7-4.14-2.3-3.33-8.27-3.28-12.28H55.68v14.48c0,2.64-4.87,5.21-7.47,5.51-8.53.99-31.45.99-39.98,0-4.59-.53-6.95-2.87-7.49-7.49-.99-8.52-.99-31.47,0-39.98.3-2.6,2.87-7.47,5.51-7.47h14.48v-179.73c-3.41.1-9.98.63-12.03-2.7-2.88-4.7-3.09-32.69.34-36.96,2.41-2.99,8.22-2.28,11.69-2.28V54.92H6.26c-3.29,0-5.28-5.58-5.54-8.44C-.04,38.07-.42,14.38.83,6.55,1.36,3.17,3.35,1.99,5.76,0h44.93ZM40.7,14.98H15.74v24.96h24.96V14.98ZM33.72,249.62h-10.99v11.99h10.99v-11.99ZM40.7,471.3H15.74v24.96h24.96v-24.96ZM262.38,478.28h-11.99v11.99h11.99v-11.99Z"/>
  <path d="M462.07,0h49.93v49.93c-1.06,1.22-4.06,4.99-5.49,4.99h-14.48v179.73c3.47,0,9.28-.72,11.69,2.28,3.43,4.27,3.22,32.26.34,36.96-2.05,3.33-8.62,2.8-12.03,2.7v179.73h14.48c1.43,0,4.44,3.77,5.49,4.99v44.93c-1.99,2.4-3.17,4.4-6.55,4.93-7.83,1.24-31.52.87-39.93.11-2.86-.26-8.44-2.25-8.44-5.54v-14.48h-39.44c-2.34,0-5.55-4.88-5.55-7.49s3.2-7.49,5.55-7.49h39.44v-14.48c0-1.18,4.32-5.49,5.49-5.49h14.48v-179.73c-3.41.1-9.98.63-12.03-2.7-2.88-4.7-3.09-32.69.34-36.96,2.41-2.99,8.22-2.28,11.69-2.28V54.92h-14.48c-1.18,0-5.49-4.32-5.49-5.49v-14.48h-179.73c.06,4.01.86,9.98-3.28,12.28s-23.52,2.27-29.18,1.7c-9.19-.92-10.18-5.48-9.48-13.99l-102.37.03c-10.15-1.17-9.85-13.98,0-15.02l102.37.03c-.19-6.17-.92-12.19,6.47-12.99,4.57-.49,29.12-.61,32.23.67,3.78,1.56,3.43,8.93,3.23,12.32h179.73V5.49c0-1.43,3.77-4.44,4.99-5.49ZM497.02,14.98h-24.96v24.96h24.96V14.98ZM262.38,21.96h-11.99v11.99h11.99v-11.99ZM490.04,249.62h-10.99v11.99h10.99v-11.99ZM497.02,471.3h-24.96v24.96h24.96v-24.96Z"/>
  <path d="M297.18,359.6l-81.63-.02-21.23,58.15c-2.26,5.67-7.01,10.19-12.77,12.2l-93.45.45c-17.15-3.99-8.14-20.37-4.49-31.5,33.62-102.39,73.3-202.93,107.08-305.3,2.72-6,6.52-9.89,12.73-12.23l103.4-.5c7.15,1.3,12.46,6.18,15.23,12.73,33.77,102.64,73.75,203.38,107.33,306.05,3.43,10.5,11.68,24.97-3,30.49l-95.18-.21c-4.61-.97-7.4-4.3-10.37-7.61l-23.67-62.7ZM274.36,95.86l27.55,78.87c1.4,8.9-9.31,12.58-13.8,5.73l-30.13-83.7-52.04.06-112.3,318.55h35.45c6.12-4.82,5.36-22.08,15-21.86,11.79.27,5.51,15.72,2.48,21.86h31.45l21.47-55.92h-31.45c-2.85,3.17-3.09,8.51-5.07,11.9-4.71,8.08-15.78,3.76-14.21-5.16.47-2.7,7.05-18.92,8.82-20.2,1.06-.77,2.21-1.31,3.53-1.46l143.52.15c1.94,1,3.36,2.69,4.45,4.54,8.32,14.14,14.47,41.9,21.48,58.4,1.15,2.72,1.8,5.86,4.24,7.74h35.45l-71.74-206.95c3.04-8.48,13.57-8.06,15.58,1l72.63,205.95h32.45l-113.33-319.52h-31.45Z"/>
  <path d="M230.16,140.96c3.91-.8,7.15,1.21,9.02,4.55,15.47,50.02,36.93,98.49,52.17,148.53,1.85,6.09,4.34,11.43-2.96,15.04l-109.41.47c-7.23-.85-8.93-6.32-6.78-12.82l54.21-153.48c.91-1.01,2.43-2.02,3.76-2.29ZM189.48,294.56h31.45l27.4-76.47c-5.49-13.64-8.87-30.76-14.89-43.89-.45-.99-.61-2.34-2.02-2.46l-41.95,122.82ZM238.41,294.56h36.94l-19.46-52.93-17.48,52.93Z"/>
</svg>