<?xml version="1.0" encoding="UTF-8"?>
<svg id="_圖層_1" data-name="圖層 1" xmlns="http://www.w3.org/2000/svg" viewBox="0 0 512 512">
  <defs>
    <style>
      .cls-1 {
        fill: #231815;
      }
    </style>
  </defs>
  <path class="cls-1" d="M257.43,466.53c-57.19,0-110.95-22.27-151.39-62.71s-62.71-94.2-62.71-151.39,22.27-110.95,62.71-151.39,94.2-62.71,151.39-62.71,110.95,22.27,151.39,62.71c40.44,40.44,62.71,94.2,62.71,151.39s-22.27,110.95-62.71,151.39c-40.44,40.44-94.2,62.71-151.39,62.71ZM257.43,41.33c-116.4,0-211.1,94.7-211.1,211.1s94.7,211.1,211.1,211.1,211.1-94.7,211.1-211.1S373.83,41.33,257.43,41.33Z"/>
  <path class="cls-1" d="M257.43,450.7c-109.33,0-198.27-88.94-198.27-198.27S148.11,54.16,257.43,54.16s198.27,88.94,198.27,198.27-88.94,198.27-198.27,198.27ZM257.43,64.16c-103.81,0-188.27,84.46-188.27,188.27s84.46,188.27,188.27,188.27,188.27-84.46,188.27-188.27-84.46-188.27-188.27-188.27Z"/>
  <g>
    <path class="cls-1" d="M163.73,222.74c0,7.8-9.37,64.73-15.67,102.13-1.06,6.3-10.12,6.3-11.18,0-6.3-37.39-15.67-94.33-15.67-102.13,0-11.74,9.52-21.26,21.26-21.26s21.26,9.52,21.26,21.26Z"/>
    <path class="cls-1" d="M393.65,222.74c0,7.8-9.37,64.73-15.67,102.13-1.06,6.3-10.12,6.3-11.18,0-6.3-37.39-15.67-94.33-15.67-102.13,0-11.74,9.52-21.26,21.26-21.26s21.26,9.52,21.26,21.26Z"/>
    <path class="cls-1" d="M231.6,308.99c0,7.87-9.55,39.81-15.85,60.03-1.65,5.31-9.17,5.31-10.82,0-6.3-20.21-15.85-52.16-15.85-60.03,0-11.74,9.52-21.26,21.26-21.26s21.26,9.52,21.26,21.26Z"/>
    <path class="cls-1" d="M278.69,153.12c0,7.87-9.55,39.81-15.85,60.03-1.65,5.31-9.17,5.31-10.82,0-6.3-20.21-15.85-52.16-15.85-60.03,0-11.74,9.52-21.26,21.26-21.26s21.26,9.52,21.26,21.26Z"/>
    <path class="cls-1" d="M319.43,308.99c0,7.87-9.55,39.81-15.85,60.03-1.65,5.31-9.17,5.31-10.82,0-6.3-20.21-15.85-52.16-15.85-60.03,0-11.74,9.52-21.26,21.26-21.26s21.26,9.52,21.26,21.26Z"/>
  </g>
</svg>