<?xml version="1.0" encoding="UTF-8"?>
<svg id="_圖層_1" xmlns="http://www.w3.org/2000/svg" version="1.1" viewBox="0 0 512 512">
  <!-- Generator: Adobe Illustrator 29.5.1, SVG Export Plug-In . SVG Version: 2.1.0 Build 141)  -->
  <defs>
    <style>
      .st0 {
        fill: #ecbd85;
      }

      .st1 {
        fill: #504f4d;
      }

      .st2 {
        fill: #f78721;
      }

      .st3 {
        fill: #c2c2c2;
      }

      .st4 {
        fill: #050403;
      }

      .st5 {
        fill: #c42222;
      }

      .st6 {
        fill: #686665;
      }

      .st7 {
        fill: #f03a3a;
      }

      .st8 {
        fill: #d3d5d5;
      }

      .st9 {
        fill: #e37125;
      }

      .st10 {
        fill: #f1cc9b;
      }

      .st11 {
        fill: #e4e6e6;
      }

      .st12 {
        fill: #f7ad40;
      }
    </style>
  </defs>
  <path class="st4" d="M497.03,64.87c-1.88.68-7.25,0-8.93-1.55-3.2-5.6-7.02-10.41-11.03-15.41-21.1-26.31-54.4-36.31-87.27-26.89-25.39,7.28-40.19,27.97-58.43,45.35,11.57,12.19,24.07,23.53,35.91,35.43.13.13-.18,1.2.3,1.67,27.54,24.9,52.36,53.28,79.91,78.1,26.62-24.63,50.92-47.5,48.53-87.24-.33-5.46-4.98-17.88,4-19.48,10.09-1.79,10.72,12.69,11.03,19.41,1.08,23.81-6.33,46.45-20.59,65.34-103.55,105.23-207.86,210.32-313.58,313.2-10.41-.1-38.61,13.37-46.9,9.52-1.41-.66-2.98-2.79-3.23-4.26-2.18-12.71,21.12-12.06,29.52-15.89,1.09-.5,2.78-.91,2.41-2.55-23.28-23.8-47.26-46.92-70.85-70.39-11.57-11.51-22.58-23.68-34.45-34.92-1.86-.79-2.55,3.66-2.98,4.98-7.65,23.1-13.85,46.89-20.48,70.31.39,2.88,30.32,30.94,34.96,35.48,2.76,2.7,14.45,16.22,16.69,16.82,4.44,1.19,20.94-6.75,26.74-6.68,4.99.06,6.52,4.46,7.47,4.83.65,6.6-.17,8.04-6.01,10.46-11.27,4.66-69.59,20.42-80.37,20.52-14.23.13-25.57-7.11-29.39-20.99v-15.97l42.46-140.69L345.8,29.92c39.85-38.44,104.73-36.6,141.28,5.49,3.27,3.77,13.04,16.94,13.78,21.24.4,2.33-2.24,7.66-3.83,8.23h0ZM326.36,140.73c-2.27,2.27-6.01,2.74-8.97,1.47l-30.59-30.34c-1.63-.29-21.37,20.2-23.35,23.38,10.11,11.82,21.86,22.85,32.95,34,1.06,1.07,2.83,1.24,3.02,1.43s.36,1.95,1.43,3.02c25.24,25.36,50.77,50.41,75.89,75.89.86.98,1.35,1.1,2.52.5,1.32-.68,19.9-19.3,21.03-20.97.62-.93,1.3-1.6.83-2.84l-67.81-68.01c-1.88-3.27-1.46-7.78,1.05-10.53,2.9-.03,7.08-2.86,10.48,1l67.87,67.85,23.44-23.44c-25.95-26.43-52.58-52.22-78.83-78.35-11.91-11.85-23.3-24.31-35.4-35.99l-2.52-.5-22.03,22c0,1.22.9,1.76,1.52,2.56,6.8,8.85,22.47,19.28,27.94,27.94,2.1,3.33,2.47,7.01-.45,9.94h-.02ZM252.01,145.73L58.9,338.84c4.48,3.52,28.75,30.47,31.42,30.48l2.04-.97,189.62-189.71.5-1.48c-9.02-11.22-20.48-20.86-30.48-31.42h.01ZM293.93,187.65l-193.1,193.1c4.48,3.52,28.75,30.47,31.42,30.48l2.04-.97,189.62-189.71.5-1.48c-9.02-11.22-20.48-20.86-30.48-31.42h0ZM335.05,230.66l-190.86,190.54-.5,1.48c9.02,11.22,20.48,20.86,30.48,31.42l193.1-193.1-29.38-29.5c-.81-.83-1.69-1.14-2.84-.83h0ZM57.89,489.04c2.07-.61,4.46-.61,5.97-2.5-.02-.79-3.3-2.76-3.97-3.49-11.44-12.47-23.63-24.31-35.92-35.93-1.93,10.4-14.63,37.09-6.04,45.45,6.49,6.32,31.52-1.03,39.96-3.53h0Z"/>
  <path class="st7" d="M477.07,47.91c4.01,5,7.83,9.82,11.03,15.41,1.68,1.55,7.05,2.23,8.93,1.55l2.99,9.98c-8.98,1.59-4.33,14.01-4,19.48,2.39,39.74-21.91,62.61-48.53,87.24-27.55-24.81-52.37-53.2-79.91-78.1-.47-.47-.17-1.54-.3-1.67,1.97.02,2.77-1.35,4.01-2.48,14.04-12.75,25.49-27.83,42.23-37.62,19.34-11.31,41.25-16.16,63.55-13.8h0Z"/>
  <path class="st10" d="M126.75,478.07c-2.77.32-8.53,2.94-10.98,2-.95-.37-2.48-4.77-7.47-4.83-5.8-.07-22.3,7.87-26.74,6.68-2.24-.6-13.93-14.12-16.69-16.82l22.96-75.85c23.59,23.47,47.57,46.59,70.85,70.39.37,1.63-1.32,2.05-2.41,2.55-8.4,3.84-31.7,3.18-29.52,15.89h0Z"/>
  <path class="st9" d="M252.01,145.73c9.99,10.56,21.46,20.2,30.48,31.42l-.5,1.48-189.62,189.71-2.04.97c-2.67,0-26.94-26.96-31.42-30.48l193.1-193.1h0Z"/>
  <path class="st2" d="M293.93,187.65c9.99,10.56,21.46,20.2,30.48,31.42l-.5,1.48-189.62,189.71-2.04.97c-2.67,0-26.94-26.96-31.42-30.48l193.1-193.1h0Z"/>
  <path class="st12" d="M335.05,230.66c1.15-.3,2.03,0,2.84.83l29.38,29.5-193.1,193.1c-9.99-10.56-21.46-20.2-30.48-31.42l.5-1.48,190.86-190.54h0Z"/>
  <path class="st5" d="M477.07,47.91c-22.3-2.36-44.21,2.49-63.55,13.8-16.74,9.79-28.19,24.87-42.23,37.62-1.24,1.12-2.04,2.5-4.01,2.48-11.84-11.9-24.34-23.24-35.91-35.43,18.24-17.38,33.04-38.08,58.43-45.35,32.87-9.42,66.17.58,87.27,26.89h0Z"/>
  <path class="st8" d="M334.35,147.71c-2.51,2.75-2.93,7.26-1.05,10.53l67.81,68.01c.46,1.24-.21,1.91-.83,2.84-1.13,1.68-19.71,20.29-21.03,20.97-1.17.6-1.66.48-2.52-.5-25.12-25.47-50.66-50.53-75.89-75.89-1.07-1.07-1.24-2.83-1.43-3.02,9.31-8.93,18.83-17.83,27.95-26.95,3.1,0,3.88,4.03,6.99,3.99v.02Z"/>
  <path class="st11" d="M357.3,114.78c26.25,26.12,52.87,51.91,78.83,78.35l-23.44,23.44-67.87-67.85c-3.4-3.86-7.58-1.03-10.48-1-3.1.04-3.89-4-6.99-3.99.24-.24-.24-1.7,0-2,3.52-4.47,20.43-19.47,25.93-24.47,1.24-1.12,2.04-2.5,4.01-2.48h0Z"/>
  <path class="st0" d="M87.83,389.24l-22.96,75.85c-4.64-4.54-34.56-32.6-34.96-35.48,6.63-23.43,12.83-47.21,20.48-70.31.44-1.32,1.12-5.77,2.98-4.98,11.87,11.24,22.87,23.41,34.45,34.92h0Z"/>
  <path class="st3" d="M326.36,140.73l1,1c-.24.3.24,1.76,0,2-9.12,9.12-18.63,18.01-27.95,26.95-.18-.18-1.95-.36-3.02-1.43-11.09-11.16-22.84-22.18-32.95-34,1.99-3.18,21.72-23.67,23.35-23.38l30.59,30.34c2.96,1.27,6.69.8,8.97-1.47h.01Z"/>
  <path class="st8" d="M357.3,114.78c-1.97-.02-2.77,1.35-4.01,2.48-5.51,5-22.41,20-25.93,24.47l-1-1c2.92-2.92,2.55-6.61.45-9.94-5.47-8.67-21.14-19.09-27.94-27.94-.61-.8-1.52-1.34-1.52-2.56l22.03-22,2.52.5c12.1,11.68,23.49,24.14,35.4,35.99Z"/>
  <path class="st1" d="M59.88,483.06l-2,5.99c-8.44,2.51-33.47,9.85-39.96,3.53-8.59-8.36,4.11-35.05,6.04-45.45,12.29,11.62,24.48,23.46,35.92,35.93h0Z"/>
  <path class="st6" d="M57.89,489.04l2-5.99c.68.74,3.96,2.7,3.97,3.49-1.5,1.89-3.9,1.88-5.97,2.5Z"/>
</svg>